# xmcd
#
# Track frame offsets:
# 150
# 11749
# 29874
# 51072
# 72014
# 88169
# 110394
# 125906
# 149805
# 165254
#
# Disc length: 2556 seconds
#
# Revision: 1
# Processed by: cddbd v1.5.1PL0 Copyright (c) Steve Scherf et al.
# Submitted via: CedeCatalogueitor 2.6.0.5 http://personales.ya.com/cdcatalogueitor
#
DISCID=9109fa0a
DTITLE=Donna Regina - Late
DYEAR=2003
DGENRE=
TTITLE0=Late
TTITLE1=Fountain Of Love
TTITLE2=Passe-by
TTITLE3=Aimes-tu
TTITLE4=Not A Girl Anymore
TTITLE5=Blue Of The Pool
TTITLE6=You Better Believe
TTITLE7=Bad Chemistry
TTITLE8=Drifwood
TTITLE9=Chemistry
EXTD=
EXTT0=
EXTT1=
EXTT2=
EXTT3=
EXTT4=
EXTT5=
EXTT6=
EXTT7=
EXTT8=
EXTT9=
PLAYORDER=
